<?xml version="1.0" standalone="no"?>
<!DOCTYPE svg PUBLIC "-//W3C//DTD SVG 20010904//EN"
 "http://www.w3.org/TR/2001/REC-SVG-20010904/DTD/svg10.dtd">
<svg version="1.0" xmlns="http://www.w3.org/2000/svg"
 width="700.000000pt" height="700.000000pt" viewBox="0 0 700.000000 700.000000"
 preserveAspectRatio="xMidYMid meet">
<metadata>
Created by potrace 1.11, written by Peter Selinger 2001-2013
</metadata>
<g transform="translate(0.000000,700.000000) scale(0.100000,-0.100000)"
fill="#000000" stroke="none">
<path d="M5477 6195 c-1 -1 -43 -5 -93 -8 -488 -33 -871 -334 -1028 -810 -14
-42 -38 -135 -53 -205 -24 -114 -26 -149 -27 -347 -1 -282 7 -361 56 -550 54
-210 129 -348 261 -478 126 -124 271 -211 517 -312 63 -26 129 -53 145 -60 17
-7 55 -22 85 -34 59 -24 76 -31 130 -54 19 -9 60 -25 90 -37 106 -42 255 -125
301 -167 60 -56 97 -132 113 -233 26 -161 26 -615 0 -749 -23 -125 -51 -180
-124 -252 -95 -94 -160 -117 -345 -124 -168 -7 -307 33 -385 108 -59 57 -127
177 -145 257 -11 48 -17 124 -18 236 l-2 139 -345 2 c-190 0 -353 -1 -363 -4
-17 -4 -18 -18 -14 -206 3 -111 8 -218 11 -237 20 -108 31 -152 53 -215 149
-413 493 -705 928 -786 105 -19 364 -28 428 -14 12 2 42 7 67 10 25 3 54 7 65
9 360 75 613 263 768 571 32 66 91 227 101 277 2 13 13 73 25 133 30 161 36
244 36 505 0 346 -18 516 -77 715 -20 68 -89 214 -112 238 -7 7 -20 23 -29 37
-32 47 -122 133 -197 189 -93 69 -233 139 -455 226 -93 36 -183 72 -200 79
-16 7 -52 22 -80 31 -27 10 -54 22 -60 25 -5 4 -28 13 -50 20 -88 28 -261 120
-315 168 -81 73 -126 170 -137 297 -9 93 -9 325 0 400 24 207 112 357 255 433
73 39 144 52 262 47 202 -8 319 -84 400 -259 52 -112 71 -207 74 -372 l3 -139
361 -1 c325 -1 362 1 362 15 3 90 -2 425 -6 456 -31 260 -138 477 -329 670
-178 179 -381 285 -651 340 -41 9 -250 24 -257 20z"/>
<path d="M2994 6145 c-7 -5 -38 -84 -69 -175 -31 -91 -72 -210 -91 -265 -19
-55 -45 -131 -58 -170 -14 -38 -63 -182 -111 -320 -48 -137 -92 -268 -100
-290 -7 -22 -54 -159 -105 -305 -50 -146 -95 -276 -100 -290 -5 -14 -52 -151
-105 -305 -53 -154 -118 -342 -143 -417 -26 -76 -51 -136 -56 -135 -5 2 -32
70 -61 153 -29 82 -54 156 -58 164 -3 8 -36 103 -72 210 -37 107 -101 292
-142 410 -144 414 -245 706 -289 835 -25 72 -60 173 -79 225 -56 160 -121 348
-170 490 -25 74 -51 147 -57 163 l-10 27 -349 0 -348 0 0 -2530 -1 -2530 364
0 363 0 -1 1536 c-1 845 2 1538 6 1540 9 5 15 -12 178 -516 78 -239 159 -487
180 -550 21 -63 93 -284 160 -490 67 -206 141 -430 163 -498 l40 -123 181 3
181 3 46 140 c26 77 160 484 299 905 139 421 263 797 277 835 14 39 26 77 28
85 2 8 9 29 15 45 6 17 13 37 15 45 8 38 38 120 44 120 4 0 7 -693 7 -1540
l-1 -1540 363 0 362 0 0 43 c0 53 0 4587 0 4834 l0 182 -342 3 c-216 2 -346
-1 -354 -7z"/>
</g>
</svg>
