<?xml version="1.0" encoding="utf-8"?>
<svg version="1.1" id="L1" xmlns="http://www.w3.org/2000/svg" xmlns:xlink="http://www.w3.org/1999/xlink" x="0px" y="0px" viewBox="0 0 256 256" style="enable-background:new 0 0 256 256;" xml:space="preserve">
  <g>
    <g>
      <path d="M15.42,216.18V31.06H40.9l34.06,98.02h0.52l33.8-98.02h25.74v185.12H108.5V103.6h-0.52l-26.26,79.56H68.46l-26-79.56
			h-0.52v112.58H15.42z" />
      <path d="M245.78,84.36h-26.52v-5.98c0-6.07-1.43-11.31-4.29-15.73c-2.86-4.42-7.67-6.63-14.43-6.63c-3.64,0-6.59,0.69-8.84,2.08
			c-2.25,1.39-4.08,3.12-5.46,5.2c-1.39,2.25-2.34,4.81-2.86,7.67c-0.52,2.86-0.78,5.85-0.78,8.97c0,3.64,0.13,6.67,0.39,9.1
			c0.26,2.43,0.91,4.59,1.95,6.5c1.04,1.91,2.55,3.55,4.55,4.94c1.99,1.39,4.72,2.77,8.19,4.16l20.28,8.06
			c5.89,2.25,10.66,4.9,14.3,7.93c3.64,3.03,6.5,6.54,8.58,10.53c1.91,4.16,3.21,8.88,3.9,14.17c0.69,5.29,1.04,11.31,1.04,18.07
			c0,7.8-0.78,15.04-2.34,21.71c-1.56,6.67-4.08,12.35-7.54,17.03c-3.64,4.85-8.41,8.67-14.3,11.44
			c-5.89,2.77-13.09,4.16-21.58,4.16c-6.41,0-12.39-1.13-17.94-3.38c-5.55-2.25-10.31-5.37-14.3-9.36
			c-3.99-3.99-7.15-8.62-9.49-13.91c-2.34-5.29-3.51-11.05-3.51-17.29v-9.88h26.52v8.32c0,4.85,1.43,9.23,4.29,13.13
			c2.86,3.9,7.67,5.85,14.43,5.85c4.51,0,8.02-0.65,10.53-1.95c2.51-1.3,4.46-3.16,5.85-5.59c1.38-2.42,2.21-5.33,2.47-8.71
			s0.39-7.15,0.39-11.31c0-4.85-0.17-8.84-0.52-11.96c-0.35-3.12-1.04-5.63-2.08-7.54c-1.21-1.91-2.82-3.47-4.81-4.68
			c-1.99-1.21-4.64-2.51-7.93-3.9l-18.98-7.8c-11.44-4.68-19.11-10.88-23.01-18.59c-3.9-7.71-5.85-17.38-5.85-28.99
			c0-6.93,0.95-13.52,2.86-19.76c1.91-6.24,4.76-11.61,8.58-16.12c3.64-4.51,8.28-8.1,13.91-10.79c5.63-2.69,12.35-4.03,20.15-4.03
			c6.58,0,12.61,1.21,18.07,3.64c5.46,2.43,10.18,5.63,14.17,9.62c7.97,8.32,11.96,17.85,11.96,28.6V84.36z" />
    </g>
  </g>
</svg>
